<svg width="24" height="25" viewBox="0 0 24 25" fill="none" xmlns="http://www.w3.org/2000/svg">
<path fill-rule="evenodd" clip-rule="evenodd" d="M17.538 1.02474C17.6278 0.880593 17.7582 0.76629 17.9129 0.696275C18.0676 0.626261 18.2396 0.603677 18.4072 0.631379L22.8234 1.36829C23.048 1.40574 23.2485 1.53081 23.3809 1.71601C23.5132 1.90121 23.5667 2.1314 23.5294 2.35598L22.7942 6.77398C22.7662 6.94146 22.6891 7.09686 22.5728 7.22054C22.4564 7.34423 22.306 7.43065 22.1406 7.46889C21.9751 7.50712 21.8021 7.49546 21.6432 7.43537C21.4844 7.37527 21.347 7.26945 21.2483 7.13127L20.0562 5.46507L13.917 9.38837C13.6552 9.55589 13.3417 9.62313 13.0342 9.57767C12.7267 9.53221 12.4461 9.37713 12.244 9.14102L8.82052 5.1387L2.41854 8.42816C2.11467 8.58442 1.76118 8.61357 1.43582 8.5092C1.11046 8.40482 0.839893 8.17548 0.683632 7.87161C0.527372 7.56775 0.498221 7.21425 0.602593 6.88889C0.706966 6.56354 0.936311 6.29297 1.24018 6.1367L8.54912 2.38003C8.80716 2.24746 9.10239 2.20587 9.38701 2.26198C9.67163 2.3181 9.92899 2.46863 10.1174 2.68922L13.4738 6.61423L18.5583 3.36429L17.5672 1.97808C17.4687 1.83985 17.4133 1.67551 17.4081 1.50584C17.4029 1.33616 17.4481 1.16874 17.538 1.02474ZM6.29374 9.45879L1.30889 12.3102C1.11196 12.4227 0.948216 12.5852 0.834206 12.7812C0.720196 12.9773 0.65996 13.2 0.659584 13.4268V23.3037C0.659584 24.0148 1.23674 24.592 1.94788 24.592H6.29374V9.45879ZM8.4409 24.592H14.7415V12.8908L11.909 14.3062L9.07818 9.35229C8.93522 9.10036 8.71122 8.90421 8.44262 8.79575L8.4409 24.592ZM21.7018 24.592H16.8887V11.8172L21.1263 9.69756C21.3227 9.5995 21.541 9.55326 21.7603 9.56323C21.9796 9.5732 22.1927 9.63904 22.3794 9.7545C22.5661 9.86997 22.7202 10.0312 22.8271 10.223C22.934 10.4147 22.9901 10.6306 22.9901 10.8502V23.3037C22.9901 23.6454 22.8543 23.9731 22.6127 24.2147C22.3711 24.4563 22.0434 24.592 21.7018 24.592Z" fill="#1643C3"/>
</svg>
